<svg width="280" height="80" viewBox="0 0 280 80" xmlns="http://www.w3.org/2000/svg">
  <!-- Fondo del símbolo -->
  <rect x="8" y="16" width="48" height="48" rx="8" fill="#3B82F6" opacity="0.1"/>
  
  <!-- Documento F29 estilizado -->
  <rect x="16" y="24" width="32" height="24" rx="3" fill="#3B82F6" opacity="0.2"/>
  
  <!-- Líneas de datos en el documento -->
  <line x1="20" y1="30" x2="44" y2="30" stroke="#3B82F6" stroke-width="2" opacity="0.4"/>
  <line x1="20" y1="34" x2="40" y2="34" stroke="#3B82F6" stroke-width="2" opacity="0.4"/>
  <line x1="20" y1="38" x2="42" y2="38" stroke="#3B82F6" stroke-width="2" opacity="0.4"/>
  
  <!-- Gráfico ascendente -->
  <polyline points="18,44 24,40 30,36 36,30 42,26 46,22" 
            fill="none" 
            stroke="#10B981" 
            stroke-width="3" 
            stroke-linecap="round"
            stroke-linejoin="round"/>
  
  <!-- Puntos de datos -->
  <circle cx="18" cy="44" r="2" fill="#10B981"/>
  <circle cx="24" cy="40" r="2" fill="#10B981"/>
  <circle cx="30" cy="36" r="2" fill="#10B981"/>
  <circle cx="36" cy="30" r="2" fill="#8B5CF6"/>
  <circle cx="42" cy="26" r="2" fill="#8B5CF6"/>
  <circle cx="46" cy="22" r="2" fill="#8B5CF6"/>
  
  <!-- Texto ContaPymePuq -->
  <text x="72" y="32" font-family="system-ui, -apple-system, sans-serif" 
        font-size="20" font-weight="700" fill="#374151">
    Conta<tspan fill="#3B82F6">Pyme</tspan><tspan fill="#10B981">Puq</tspan>
  </text>
  
  <!-- Subtítulo -->
  <text x="72" y="48" font-family="system-ui, -apple-system, sans-serif" 
        font-size="11" font-weight="500" fill="#6B7280">
    Sistema Contable Integral
  </text>
  
  <!-- Indicador tecnológico -->
  <circle cx="270" cy="20" r="3" fill="#8B5CF6" opacity="0.6"/>
  <circle cx="275" cy="25" r="2" fill="#8B5CF6" opacity="0.4"/>
  <circle cx="265" cy="25" r="2" fill="#3B82F6" opacity="0.4"/>
</svg>